SplineFontDB: 3.2
FontName: cursive_liparxe
FullName: cursive_liparxe
FamilyName: cursive_liparxe
Weight: Regular
Copyright: 
Version: 
ItalicAngle: 0
UnderlinePosition: 0
UnderlineWidth: 0
Ascent: 800
Descent: 200
InvalidEm: 0
LayerCount: 2
Layer: 0 0 "+gMyXYgAA" 1
Layer: 1 0 "+Uk2XYgAA" 0
HasVMetrics: 1
XUID: [1021 686 -1815988411 26969]
FSType: 0
OS2Version: 0
OS2_WeightWidthSlopeOnly: 0
OS2_UseTypoMetrics: 0
CreationTime: 1721328334
ModificationTime: 1722117125
PfmFamily: 17
TTFWeight: 400
TTFWidth: 5
LineGap: 90
VLineGap: 90
OS2TypoAscent: 0
OS2TypoAOffset: 1
OS2TypoDescent: 0
OS2TypoDOffset: 1
OS2TypoLinegap: 90
OS2WinAscent: 0
OS2WinAOffset: 1
OS2WinDescent: 0
OS2WinDOffset: 1
HheadAscent: 0
HheadAOffset: 1
HheadDescent: 0
HheadDOffset: 1
OS2Vendor: 'PfEd'
MarkAttachClasses: 1
DEI: 91125
LangName: 1033
Encoding: ISO8859-1
UnicodeInterp: none
NameList: AGL For New Fonts
DisplaySize: -48
AntiAlias: 1
FitToEm: 0
WinInfo: 0 38 9
BeginPrivate: 0
EndPrivate
Grid
-1000 593.599609375 m 0
 2000 593.599609375 l 1024
-1724.5859375 1300 m 0
 -1724.5859375 -700 l 1024
EndSplineSet
BeginChars: 256 36

StartChar: a
Encoding: 97 97 1
Width: 514
VWidth: 824
Flags: W
HStem: 51 50<147.702 213 223 278.787> 503 51<229.931 371.307>
VStem: 7 49<52.1457 68>
LayerCount: 2
Fore
SplineSet
315 554 m 1
 309 554 301 554 294 553 c 0
 264 551 233 541 203 524 c 1
 201 536 191 546 178 546 c 0
 176 546 176 545 174 545 c 0
 168 544 162 541 159 536 c 0
 -14 319 l 2
 -17 315 -19 310 -19 304 c 0
 -19 296 -16 289 -10 284 c 0
 -6 281 0 279 6 279 c 0
 14 279 20 282 25 288 c 0
 112 397 l 1
 9 84 l 2
 8 82 7 78 7 76 c 0
 7 65 14 55 24 52 c 0
 26 51 30 51 32 51 c 0
 43 51 53 58 56 68 c 0
 178 439 l 1
 211 478 258 500 299 503 c 0
 320 505 338 502 352 496 c 0
 366 490 373 482 378 469 c 0
 382 458 381 449 374 437 c 0
 367 425 354 412 336 398 c 0
 300 371 248 343 204 320 c 0
 203 319 202 319 201 318 c 0
 200 317 199 316 198 315 c 0
 197 314 197 313 196 312 c 0
 195 311 195 310 194 309 c 0
 193 307 193 308 193 306 c 0
 192 305 191 304 191 302 c 0
 191 301 191 301 191 300 c 0
 191 299 191 299 191 298 c 0
 191 297 191 298 191 297 c 0
 191 296 191 295 191 294 c 0
 191 292 192 291 193 290 c 0
 193 289 193 288 194 287 c 0
 194 286 l 0
 195 285 195 284 196 283 c 0
 197 282 197 282 198 281 c 0
 199 280 201 279 202 278 c 0
 203 277 204 277 205 276 c 0
 206 275 207 274 209 274 c 0
 210 273 211 274 213 274 c 0
 214 274 213 274 214 274 c 0
 215 274 215 274 216 274 c 0
 217 274 217 274 218 274 c 0
 219 274 219 274 220 274 c 0
 222 274 223 274 224 275 c 0
 225 275 226 275 227 276 c 0
 285 306 321 297 339 280 c 0
 357 263 364 234 350 210 c 0
 302 125 258 103 223 101 c 0
 222 101 221 101 220 101 c 0
 218 101 218 101 216 101 c 0
 215 101 214 101 213 101 c 0
 175 102 142 126 120 140 c 0
 116 142 111 144 106 144 c 0
 97 144 90 139 86 132 c 0
 84 128 82 124 82 119 c 0
 82 110 87 102 94 98 c 0
 112 87 154 53 211 51 c 0
 216 51 220 51 225 51 c 0
 230 51 235 51 242 52 c 0
 258 54 280 59 307 73 c 0
 361 100 438 159 533 286 c 0
 536 290 538 296 538 302 c 0
 538 310 533 316 527 321 c 0
 523 324 519 326 513 326 c 0
 511 326 510 326 509 326 c 0
 503 325 497 321 493 316 c 0
 460 272 429 237 402 209 c 1
 413 247 403 290 373 317 c 0
 363 326 352 333 338 338 c 1
 348 344 356 351 366 358 c 0
 387 374 406 391 418 413 c 0
 430 435 436 460 426 486 c 0
 416 512 396 532 373 542 c 0
 355 550 335 553 315 554 c 1
EndSplineSet
EndChar

StartChar: b
Encoding: 98 98 2
Width: 343
VWidth: 824
Flags: HW
HStem: 55 50<-8.3846 123.322> 751 50<265.048 297.949>
LayerCount: 2
Fore
SplineSet
265.047851562 801 m 1
 243.047851562 801 228.047851562 787 213.047851562 772 c 0
 198.047851562 757 184.047851562 737 169.047851562 713 c 0
 139.047851562 665 108.047851562 602 78.0478515625 536 c 0
 20.0478515625 405 -30.9521484375 265 -44.9521484375 226 c 0
 -62.9521484375 176 -67.9521484375 136 -53.9521484375 104 c 0
 -39.9521484375 72 -6.9521484375 55 30.0478515625 55 c 0
 120.047851562 55 185.047851562 95 217.047851562 158 c 0
 236.047851562 196 244.047851562 239 245.047851562 288 c 1
 255.047851562 278 265.047851562 270 279.047851562 264 c 0
 303.047851562 254 335.047851562 262 358.047851562 286 c 0
 362.047851562 291 365.047851562 297 365.047851562 303 c 0
 365.047851562 310 362.047851562 316 357.047851562 321 c 0
 352.047851562 325 347.047851562 328 341.047851562 328 c 0
 334.047851562 328 327.047851562 326 322.047851562 321 c 0
 308.047851562 307 305.047851562 307 297.047851562 310 c 0
 289.047851562 313 277.047851562 325 267.047851562 340 c 0
 257.047851562 355 248.047851562 373 242.047851562 385 c 0
 239.047851562 391 238.047851562 395 236.047851562 399 c 0
 235.047851562 400 234.047851562 401 233.047851562 403 c 0
 232.047851562 404 232.047851562 405 230.047851562 407 c 0
 228.047851562 409 226.047851562 415 212.047851562 415 c 0
 206.047851562 415 197.047851562 410 193.047851562 406 c 0
 189.047851562 402 189.047851562 399 188.047851562 397 c 0
 186.047851562 392 187.047851562 391 187.047851562 389 c 0
 187.047851562 386 188.047851562 386 188.047851562 384 c 0
 202.047851562 301 196.047851562 229 172.047851562 181 c 0
 148.047851562 133 107.047851562 105 30.0478515625 105 c 0
 5.0478515625 105 -1.9521484375 110 -7.9521484375 123 c 0
 -13.9521484375 136 -13.9521484375 166 1.0478515625 210 c 0
 8.0478515625 229 26.0478515625 276 48.0478515625 334 c 0
 49.0478515625 334 51.0478515625 334 52.0478515625 335 c 2
 52.0478515625 335 165.047851562 441 251.047851562 549 c 0
 294.047851562 603 331.047851562 656 345.047851562 703 c 0
 352.047851562 727 353.047851562 753 338.047851562 773 c 0
 323.047851562 793 296.047851562 801 265.047851562 801 c 1
265.047851562 751 m 1
 288.047851562 751 296.047851562 745 298.047851562 743 c 0
 300.047851562 741 302.047851562 733 297.047851562 717 c 0
 287.047851562 685 255.047851562 632 213.047851562 580 c 0
 175.047851562 533 132.047851562 487 95.0478515625 449 c 1
 105.047851562 471 114.047851562 494 124.047851562 516 c 0
 153.047851562 580 183.047851562 641 211.047851562 686 c 0
 225.047851562 708 239.047851562 727 249.047851562 738 c 0
 259.047851562 749 267.047851562 751 265.047851562 751 c 1
EndSplineSet
EndChar

StartChar: c
Encoding: 99 99 3
Width: 376
VWidth: 824
Flags: W
HStem: -194 49<29.8734 109.554> 509 50<272.217 362.717>
VStem: 199 50<147.703 168.662 218 245.719>
LayerCount: 2
Fore
SplineSet
343 559 m 1
 338 559 333 559 328 558 c 0
 286 553 243 531 198 503 c 0
 108 447 16 364 -26 322 c 0
 -31 317 -34 311 -34 304 c 0
 -34 298 -30 291 -26 286 c 0
 -21 281 -16 279 -9 279 c 0
 -3 279 4 282 9 286 c 0
 51 326 141 408 224 461 c 0
 266 487 307 506 334 509 c 0
 348 511 357 509 363 505 c 0
 369 502 374 495 378 482 c 0
 379 476 374 458 360 436 c 0
 345 414 324 388 301 364 c 0
 255 317 206 277 206 277 c 2
 200 272 198 266 198 258 c 0
 198 257 198 256 198 255 c 2
 198 255 200 219 199 169 c 1
 85 53 25 -24 -2 -77 c 0
 -21 -114 -27 -142 -14 -166 c 0
 -1 -190 25 -194 44 -194 c 0
 118 -194 168 -148 198 -90 c 0
 233 -21 244 65 248 135 c 0
 248 139 248 143 248 147 c 0
 289 188 337 235 392 286 c 0
 397 291 400 297 400 304 c 0
 400 310 398 316 394 321 c 0
 389 326 382 329 375 329 c 0
 369 329 363 326 358 322 c 0
 317 284 282 250 249 218 c 1
 249 235 249 240 248 246 c 1
 260 256 295 288 336 330 c 0
 360 355 384 382 402 409 c 0
 420 436 433 464 427 494 c 0
 427 495 427 495 427 496 c 0
 420 519 406 538 388 548 c 0
 374 556 358 559 343 559 c 1
194 92 m 1
 188 36 176 -23 154 -67 c 0
 129 -115 98 -145 44 -145 c 0
 33 -145 30 -142 30 -142 c 0
 30 -142 26 -129 42 -99 c 0
 62 -61 107 0 194 92 c 1
EndSplineSet
EndChar

StartChar: d
Encoding: 100 100 4
Width: 685
VWidth: 824
Flags: W
HStem: 54 49<108.467 129 301.467 359.663>
VStem: 55 50<103.222 279.003> 248 50<103.222 165.682> 360 47<536 548.809> 562 48<477.129 550.991>
LayerCount: 2
Fore
SplineSet
584 551 m 0
 574 550 565 545 562 535 c 0
 539 469 501 369 470 280 c 0
 466 268 461 256 457 245 c 0
 455 243 454 243 453 241 c 2
 453 241 431 204 401 168 c 0
 387 150 369 132 354 120 c 0
 339 108 327 103 322 103 c 0
 312 103 310 106 306 112 c 0
 302 118 298 133 298 151 c 0
 297 188 308 243 324 297 c 0
 356 406 406 516 406 516 c 2
 408 519 407 522 407 526 c 0
 407 536 402 545 393 549 c 0
 390 551 386 550 382 550 c 0
 379 550 376 550 374 549 c 0
 368 547 362 542 360 536 c 2
 360 536 315 434 282 326 c 0
 280 322 252 267 218 210 c 0
 200 180 180 151 162 131 c 0
 153 121 144 114 138 109 c 0
 132 104 128 103 129 103 c 1
 119 103 117 106 113 112 c 0
 109 118 105 133 105 151 c 0
 104 188 116 243 132 297 c 0
 164 406 213 516 213 516 c 2
 213 517 214 517 214 518 c 0
 214 519 l 0
 214 520 214 521 214 522 c 0
 214 523 l 0
 214 524 214 525 214 526 c 0
 214 527 214 528 214 529 c 0
 214 530 l 0
 214 531 214 531 214 532 c 0
 214 533 l 0
 214 534 214 535 213 536 c 0
 212 537 l 0
 212 538 211 538 211 539 c 0
 210 540 l 0
 209 541 210 541 209 542 c 0
 208 542 l 0
 207 543 207 543 206 544 c 0
 206 545 l 0
 204 547 203 547 201 548 c 0
 200 548 l 0
 200 549 l 0
 199 549 l 0
 197 550 194 550 192 550 c 0
 191 550 191 550 190 550 c 0
 189 550 189 550 188 550 c 0
 186 550 183 550 181 549 c 0
 179 548 176 547 174 545 c 0
 173 544 173 544 172 543 c 0
 171 543 172 543 171 542 c 0
 -17 320 l 2
 -21 316 -22 310 -22 304 c 0
 -22 296 -20 290 -14 285 c 0
 -10 281 -4 279 2 279 c 0
 10 279 17 282 22 288 c 0
 111 394 l 1
 101 368 92 339 84 311 c 0
 67 254 54 197 55 150 c 0
 55 127 59 104 70 86 c 0
 81 68 103 55 127 54 c 0
 143 53 156 60 167 68 c 0
 178 76 189 86 199 98 c 0
 216 117 233 142 248 166 c 1
 248 160 248 155 248 150 c 0
 248 127 252 104 263 86 c 0
 274 68 296 55 320 54 c 0
 346 53 367 66 386 82 c 0
 397 91 408 102 418 113 c 1
 416 103 416 95 418 84 c 0
 420 73 429 60 440 55 c 0
 451 50 463 52 473 54 c 0
 494 59 514 70 538 88 c 0
 586 125 646 189 706 280 c 0
 708 284 710 289 710 294 c 0
 710 303 704 309 698 314 c 0
 694 316 690 318 685 318 c 0
 676 318 669 313 664 307 c 0
 606 219 550 160 508 128 c 0
 490 114 476 107 467 104 c 1
 467 106 468 107 468 109 c 0
 470 119 473 131 478 147 c 0
 487 178 501 219 516 263 c 0
 547 351 585 451 609 518 c 0
 610 520 610 523 610 526 c 0
 610 537 604 547 594 550 c 0
 592 551 589 552 586 552 c 0
 585 552 585 551 584 551 c 0
EndSplineSet
EndChar

StartChar: e
Encoding: 101 101 5
Width: 534
VWidth: 824
Flags: HW
HStem: 54 49<104.235 179.016>
VStem: 400 48<477.129 550.991>
LayerCount: 2
Fore
SplineSet
422 551 m 0
 412 550 403 545 400 535 c 0
 377 469 338 369 307 280 c 0
 303 268 299 256 295 245 c 0
 294 244 293 243 292 242 c 2
 292 242 265 206 230 170 c 0
 212 152 193 134 175 122 c 0
 157 110 140 103 130 103 c 0
 115 104 109 108 104 114 c 0
 99 120 95 134 94 152 c 0
 92 188 93 242 111 296 c 0
 146 405 203 514 203 514 c 2
 205 517 205 522 205 526 c 0
 205 539 196 549 183 550 c 0
 182 550 182 550 181 550 c 0
 173 550 166 547 161 541 c 2
 161 541 35 378 -17 317 c 0
 -21 313 -23 306 -23 300 c 0
 -23 293 -20 287 -14 282 c 0
 -10 278 -4 275 2 275 c 0
 9 275 16 278 21 284 c 0
 36 302 59 333 81 359 c 1
 75 343 70 328 64 312 c 0
 46 255 42 198 44 150 c 0
 45 126 50 102 64 84 c 0
 78 66 102 55 128 54 c 0
 155 53 181 66 203 81 c 0
 223 95 241 111 259 128 c 1
 258 125 257 121 256 118 c 0
 254 106 252 97 255 84 c 0
 257 72 268 59 280 55 c 0
 292 51 302 53 312 55 c 0
 333 61 354 74 380 93 c 0
 430 131 493 197 553 289 c 0
 555 293 557 297 557 302 c 0
 557 311 552 318 546 323 c 0
 542 325 537 327 532 327 c 0
 523 327 517 322 512 316 c 0
 454 229 394 166 350 132 c 0
 331 117 315 110 305 106 c 1
 305 107 305 107 305 109 c 0
 307 119 311 131 316 147 c 0
 325 178 339 219 354 263 c 0
 385 351 423 451 447 518 c 0
 448 520 448 523 448 526 c 0
 448 537 442 547 432 550 c 0
 430 551 426 552 423 552 c 0
 422 552 423 551 422 551 c 0
EndSplineSet
EndChar

StartChar: f
Encoding: 102 102 6
Width: 443
VWidth: 824
Flags: HW
LayerCount: 2
Fore
SplineSet
368 553 m 1
 366 553 363 553 361 553 c 0
 354 552 347 551 340 549 c 0
 322 544 308 532 294 517 c 0
 280 502 265 482 250 460 c 0
 248 456 244 452 242 448 c 1
 244 456 244 464 244 472 c 0
 245 490 244 507 235 522 c 0
 226 537 207 550 189 550 c 0
 174 550 162 543 151 536 c 0
 140 529 129 518 119 507 c 0
 97 485 75 457 55 429 c 0
 14 373 -19 317 -19 317 c 2
 -21 313 -22 309 -22 304 c 0
 -22 295 -17 286 -10 282 c 0
 -6 280 -3 279 2 279 c 0
 11 279 19 284 23 291 c 2
 23 291 56 346 95 400 c 0
 114 427 136 454 154 473 c 0
 164 483 173 489 179 494 c 0
 185 499 191 500 189 500 c 1
 194 500 190 501 192 499 c 0
 194 497 195 488 194 474 c 0
 192 447 182 405 166 358 c 0
 148 305 123 247 99 194 c 0
 99 194 l 0
 69 133 47 87 47 87 c 2
 47 86 46 87 46 86 c 0
 45 84 45 80 45 77 c 0
 45 76 l 0
 45 74 46 74 46 73 c 0
 47 70 47 67 49 65 c 0
 50 64 49 63 50 62 c 0
 52 59 55 56 58 54 c 0
 58 54 l 0
 59 54 l 0
 60 54 60 54 61 54 c 0
 63 53 67 52 70 52 c 0
 70 52 l 0
 72 52 73 53 74 53 c 0
 77 54 80 54 82 56 c 0
 83 57 83 56 84 57 c 0
 87 59 89 62 91 65 c 0
 106 94 126 132 145 174 c 0
 145 174 l 0
 162 207 179 243 200 281 c 0
 230 335 261 390 290 432 c 0
 304 453 319 470 330 482 c 0
 341 494 352 501 353 501 c 0
 371 506 379 504 384 499 c 0
 389 494 395 481 394 450 c 0
 392 388 361 269 286 86 c 1
 221 56 120 6 32 -43 c 0
 -14 -69 -56 -93 -86 -112 c 0
 -101 -122 -112 -130 -122 -138 c 0
 -127 -142 -131 -145 -135 -150 c 0
 -137 -152 -139 -154 -141 -159 c 0
 -143 -164 -143 -172 -140 -180 c 0
 -136 -189 -128 -195 -118 -195 c 0
 -112 -195 -106 -193 -102 -190 c 0
 -52 -153 -21 -144 2 -144 c 0
 25 -144 45 -155 71 -169 c 0
 97 -183 130 -197 172 -195 c 0
 214 -193 265 -176 331 -132 c 0
 337 -127 342 -120 342 -111 c 0
 342 -106 340 -101 338 -97 c 0
 333 -91 326 -86 317 -86 c 0
 312 -86 307 -88 303 -90 c 0
 242 -131 200 -145 170 -146 c 0
 140 -147 119 -137 94 -124 c 0
 76 -115 57 -105 34 -99 c 1
 41 -95 48 -90 56 -86 c 0
 146 -36 254 18 316 46 c 0
 322 48 327 53 329 59 c 0
 407 250 442 371 444 448 c 0
 445 486 439 516 418 535 c 0
 404 548 386 553 368 553 c 1
 368 553 l 1
EndSplineSet
EndChar

StartChar: g
Encoding: 103 103 7
Width: 352
VWidth: 824
Flags: W
HStem: -124 50<-29.6225 109.587> 501 49<138.012 221.482>
LayerCount: 2
Fore
SplineSet
192 550 m 2
 157 550 126 535 99 512 c 0
 72 489 49 459 28 425 c 0
 6 390 -13 352 -29 315 c 0
 -29 314 l 0
 -43 280 -56 248 -66 220 c 0
 -87 162 -87 115 -62 84 c 0
 -37 53 5 48 51 58 c 0
 141 78 260 156 364 281 c 0
 367 285 370 291 370 297 c 0
 370 305 367 311 361 316 c 0
 357 319 351 322 345 322 c 0
 337 322 331 319 326 313 c 0
 228 195 113 122 41 106 c 0
 5 98 -15 104 -24 115 c 0
 -33 126 -37 153 -19 203 c 0
 -10 227 0 255 12 284 c 1
 126 322 176 338 278 377 c 0
 288 381 294 390 294 400 c 0
 294 402 294 403 294 404 c 0
 288 442 280 475 266 502 c 0
 252 529 225 550 192 550 c 2
192 501 m 0
 207 501 212 497 222 479 c 0
 229 465 236 442 241 416 c 1
 171 389 114 370 41 346 c 1
 51 364 60 382 70 399 c 0
 89 429 110 456 131 474 c 0
 152 492 172 501 192 501 c 0
181 -24 m 0
 180 -24 181 -23 180 -23 c 0
 176 -23 172 -24 169 -26 c 2
 169 -26 144 -39 113 -51 c 0
 82 -63 44 -75 26 -74 c 0
 -15 -73 -37 -45 -37 -45 c 2
 -42 -39 -49 -34 -57 -34 c 0
 -63 -34 -68 -37 -72 -40 c 0
 -78 -45 -82 -51 -82 -59 c 0
 -82 -65 -80 -70 -77 -74 c 2
 -77 -74 -40 -122 25 -124 c 0
 60 -125 99 -112 132 -98 c 0
 165 -84 191 -70 191 -70 c 2
 199 -66 205 -58 205 -48 c 0
 205 -44 204 -40 202 -37 c 0
 199 -31 193 -27 187 -25 c 0
 185 -24 183 -24 181 -24 c 0
EndSplineSet
EndChar

StartChar: h
Encoding: 104 104 8
Width: 413
VWidth: 824
Flags: W
HStem: 502 49<221.003 308.313>
VStem: 318 49<430.104 457.953>
LayerCount: 2
Fore
SplineSet
263 551 m 0
 259 551 255 552 250 550 c 0
 186 531 136 476 94 414 c 0
 52 352 21 279 -1 220 c 0
 -22 162 -22 115 3 84 c 0
 28 53 71 48 117 58 c 0
 207 78 326 156 430 281 c 0
 433 285 435 291 435 297 c 0
 435 305 432 311 426 316 c 0
 422 319 416 322 410 322 c 0
 402 322 396 319 391 313 c 0
 293 195 178 122 106 106 c 0
 70 98 51 104 42 115 c 0
 33 126 28 153 46 203 c 0
 66 259 97 328 135 386 c 0
 173 443 217 488 263 502 c 0
 263 502 267 502 271 502 c 0
 276 501 283 500 289 497 c 0
 301 491 314 481 318 451 c 0
 320 439 329 430 342 430 c 0
 344 430 345 430 346 430 c 0
 358 432 367 441 367 454 c 0
 367 456 366 457 366 458 c 0
 360 502 335 530 310 542 c 0
 298 548 286 550 276 551 c 0
 271 552 267 551 263 551 c 0
EndSplineSet
EndChar

StartChar: i
Encoding: 105 105 9
Width: 503
VWidth: 824
Flags: W
VStem: -38 48<52.2127 68>
LayerCount: 2
Fore
SplineSet
163 552 m 0
 161 552 160 551 158 551 c 0
 152 549 146 547 143 542 c 0
 -21 318 l 2
 -24 314 -26 310 -26 304 c 0
 -26 296 -22 289 -16 284 c 0
 -12 281 -7 279 -1 279 c 0
 7 279 14 283 19 289 c 0
 70 359 l 1
 -37 86 l 2
 -38 83 -38 80 -38 77 c 0
 -38 67 -32 58 -22 54 c 0
 -19 53 -17 52 -14 52 c 0
 -4 52 6 58 10 68 c 0
 130 375 l 2
 131 376 130 375 131 376 c 2
 131 376 152 407 182 438 c 0
 212 469 252 497 281 499 c 0
 302 501 312 496 318 491 c 0
 324 486 328 480 330 466 c 0
 334 438 324 389 307 339 c 0
 290 289 269 236 251 191 c 0
 242 169 235 149 230 131 c 0
 225 113 220 101 226 82 c 0
 229 72 238 60 249 55 c 0
 260 50 271 52 281 54 c 0
 301 59 321 70 345 88 c 0
 393 125 455 188 526 278 c 0
 529 282 531 288 531 294 c 0
 531 302 528 309 522 314 c 0
 518 317 512 318 506 318 c 0
 498 318 492 316 487 310 c 0
 417 221 357 160 315 128 c 0
 297 114 284 107 275 104 c 1
 276 108 276 112 278 118 c 0
 282 132 289 151 298 173 c 0
 315 217 336 271 354 324 c 0
 372 377 385 429 379 473 c 0
 376 495 367 516 349 530 c 0
 335 541 318 547 298 549 c 0
 292 550 285 550 278 549 c 0
 241 547 209 527 181 504 c 1
 186 518 l 2
 187 521 188 524 188 527 c 0
 188 541 177 552 163 552 c 0
EndSplineSet
EndChar

StartChar: j
Encoding: 106 106 10
Width: 458
VWidth: 619
Flags: W
HStem: -201 50<61.1427 114.501> 70 50<92.2351 169.945>
VStem: 32 50<130.286 283.292> 387 49<479.823 551.854>
LayerCount: 2
Fore
SplineSet
184 554 m 0
 183 554 183 554 182 554 c 0
 174 554 167 551 162 545 c 2
 162 545 35 379 -17 318 c 0
 -21 314 -23 308 -23 302 c 0
 -23 294 -19 288 -14 283 c 0
 -10 279 -4 277 2 277 c 0
 10 277 16 281 21 286 c 0
 34 302 57 330 76 354 c 1
 72 343 67 333 63 322 c 0
 44 267 30 211 32 164 c 0
 33 140 38 117 52 99 c 0
 66 81 90 71 116 70 c 0
 143 69 169 79 193 94 c 1
 184 85 174 75 165 66 c 0
 107 8 56 -48 29 -94 c 0
 16 -117 5 -139 12 -164 c 0
 15 -176 25 -188 37 -194 c 0
 49 -200 61 -201 75 -201 c 0
 105 -201 131 -185 151 -164 c 0
 171 -143 186 -115 200 -84 c 0
 228 -24 251 47 277 105 c 1
 310 136 343 167 373 193 c 0
 425 240 465 272 478 284 c 0
 483 289 486 296 486 303 c 0
 486 310 483 316 479 320 c 0
 474 325 468 328 461 328 c 0
 454 328 447 325 443 321 c 0
 435 313 393 277 340 230 c 0
 336 226 331 222 327 218 c 1
 360 296 371 338 435 520 c 0
 436 523 436 525 436 528 c 0
 436 539 429 549 419 552 c 0
 416 553 414 553 411 553 c 0
 400 553 390 547 387 537 c 0
 325 360 314 316 284 244 c 0
 283 243 256 212 221 180 c 0
 185 148 139 119 118 120 c 0
 103 120 97 124 92 130 c 0
 87 136 83 149 82 166 c 0
 81 201 93 253 111 306 c 0
 147 411 204 518 204 518 c 2
 206 522 207 525 207 529 c 0
 207 542 197 553 184 554 c 0
189 19 m 1
 178 -10 167 -38 155 -63 c 0
 142 -91 128 -115 114 -130 c 0
 100 -145 88 -151 75 -151 c 0
 67 -151 63 -150 61 -149 c 0
 61 -148 63 -136 73 -119 c 0
 93 -84 137 -34 189 19 c 1
EndSplineSet
EndChar

StartChar: k
Encoding: 107 107 11
Width: 352
VWidth: 824
Flags: W
HStem: 501 49<137.012 221.774>
LayerCount: 2
Fore
SplineSet
191 550 m 2
 156 550 125 535 98 512 c 0
 71 489 48 459 27 425 c 0
 5 390 -14 352 -30 315 c 0
 -30 314 l 0
 -44 280 -57 248 -67 220 c 0
 -88 162 -88 115 -63 84 c 0
 -38 53 4 48 50 58 c 0
 140 78 259 156 363 281 c 0
 366 285 369 291 369 297 c 0
 369 305 366 311 360 316 c 0
 356 319 350 322 344 322 c 0
 336 322 330 319 325 313 c 0
 227 195 112 122 40 106 c 0
 4 98 -16 104 -25 115 c 0
 -34 126 -38 153 -20 203 c 0
 -11 227 -1 255 11 284 c 1
 125 322 176 338 278 377 c 0
 288 381 294 390 294 400 c 0
 294 402 293 403 293 404 c 0
 287 442 280 475 266 502 c 0
 252 529 224 550 191 550 c 2
191 501 m 0
 206 501 212 497 222 479 c 0
 229 465 235 442 240 416 c 1
 170 389 113 370 40 346 c 1
 50 364 60 382 70 399 c 0
 89 429 109 456 130 474 c 0
 151 492 171 501 191 501 c 0
EndSplineSet
EndChar

StartChar: l
Encoding: 108 108 12
Width: 429
VWidth: 824
Flags: W
HStem: 42 50<101 236.608> 500 51<288.459 414.869>
LayerCount: 2
Fore
SplineSet
365 551 m 2
 359 551 354 551 348 550 c 0
 304 544 256 522 210 494 c 0
 116 439 26 358 -15 322 c 0
 -20 317 -23 311 -23 304 c 0
 -23 298 -21 291 -17 287 c 0
 -12 282 -5 279 2 279 c 0
 8 279 14 281 18 285 c 0
 58 320 149 399 236 451 c 0
 280 477 323 496 355 500 c 0
 371 502 384 501 394 497 c 0
 404 493 411 487 418 474 c 0
 428 455 426 444 416 429 c 0
 406 414 386 397 363 383 c 0
 317 357 262 342 262 342 c 0
 252 339 244 329 244 318 c 0
 244 307 252 297 262 294 c 2
 262 294 276 289 293 282 c 1
 241 262 199 244 166 226 c 0
 110 196 78 169 62 142 c 0
 54 128 49 113 51 99 c 0
 53 85 60 73 70 65 c 0
 88 48 113 42 135 42 c 0
 215 42 333 78 390 181 c 0
 405 208 406 236 396 258 c 0
 395 260 394 264 392 266 c 1
 406 271 419 275 434 280 c 0
 444 283 451 293 451 304 c 0
 451 306 451 309 450 311 c 0
 447 321 437 329 426 329 c 0
 424 329 421 328 419 327 c 0
 396 320 375 312 354 305 c 0
 352 306 352 307 350 308 c 0
 345 311 342 314 337 316 c 1
 353 323 370 331 388 341 c 0
 414 356 441 376 458 402 c 0
 475 428 480 464 462 498 c 0
 451 520 433 535 413 543 c 0
 398 549 382 552 365 551 c 2
343 248 m 1
 345 245 348 241 350 238 c 0
 354 228 356 221 347 205 c 0
 302 124 200 92 135 92 c 0
 123 92 109 97 104 102 c 0
 102 104 101 105 101 106 c 0
 101 107 100 111 104 117 c 0
 112 130 138 154 190 182 c 0
 227 202 277 223 343 248 c 1
EndSplineSet
EndChar

StartChar: m
Encoding: 109 109 13
Width: 332
VWidth: 824
Flags: W
HStem: -194 49<-42.7634 38.084> 265 50<229.095 275.791> 750 51<278.33 346>
VStem: 171 105<267.758 312.839> 171 49<108.176 265 314.047 329.954> 350 49<681.156 750>
LayerCount: 2
Fore
SplineSet
341 801 m 0xec
 321 800 304 794 288 788 c 0
 270 781 256 772 251 770 c 0
 157 716 83 622 46 528 c 0
 28 481 18 433 22 389 c 0
 26 347 43 307 76 280 c 1
 61 256 44 231 30 207 c 0
 -28 110 -77 18 -97 -55 c 0
 -107 -92 -111 -125 -98 -153 c 0
 -92 -167 -79 -179 -65 -186 c 0
 -51 -193 -32 -195 -14 -194 c 0
 -12 -194 -12 -194 -10 -194 c 0
 128 -160 186 -58 207 45 c 0
 223 123 220 203 220 265 c 1xec
 231 263 244 263 258 266 c 0
 268 268 276 279 276 290 c 0xf4
 276 292 276 295 275 297 c 0
 273 307 262 315 251 315 c 0
 249 315 247 315 245 314 c 0
 235 312 231 313 229 314 c 0
 227 315 227 316 225 318 c 0
 223 320 223 324 222 326 c 0
 222 327 221 327 221 328 c 0
 221 329 221 329 220 330 c 0
 219 331 221 333 215 339 c 0
 212 342 203 348 191 346 c 0
 179 344 176 337 174 334 c 0
 171 328 172 327 172 326 c 0
 172 324 171 323 171 322 c 0
 165 252 176 148 158 55 c 0
 140 -37 98 -115 -19 -145 c 0
 -30 -145 -38 -144 -43 -142 c 0
 -48 -140 -50 -137 -52 -132 c 0
 -56 -122 -58 -100 -49 -69 c 0
 -32 -7 17 87 74 182 c 0
 131 277 196 376 250 458 c 0
 277 499 302 533 320 563 c 0
 338 591 350 611 356 628 c 0
 386 682 399 716 399 746 c 0
 399 761 394 776 384 786 c 0
 374 796 361 800 350 801 c 0
 347 801 344 801 341 801 c 0xec
346 751 m 0
 348 751 348 750 349 750 c 0
 349 749 350 749 350 746 c 0
 350 734 341 701 312 650 c 0
 311 648 311 648 310 646 c 0
 308 640 296 618 278 590 c 0
 260 562 237 526 210 485 c 0
 177 436 140 381 103 323 c 1
 85 341 73 364 71 394 c 0
 68 428 76 468 92 510 c 0
 125 593 194 680 276 727 c 0xf4
 278 728 292 736 306 742 c 0
 320 748 339 752 346 751 c 0
EndSplineSet
EndChar

StartChar: n
Encoding: 110 110 14
Width: 518
VWidth: 824
Flags: W
HStem: 499 50<408.479 464.159>
VStem: 335 50<285.481 475.196>
LayerCount: 2
Fore
SplineSet
209 550 m 1
 207 550 207 550 205 550 c 0
 198 550 191 547 186 542 c 2
 186 542 37 381 -17 317 c 0
 -21 313 -22 306 -22 300 c 0
 -22 293 -20 287 -14 282 c 0
 -10 278 -4 275 2 275 c 0
 9 275 17 278 22 284 c 0
 33 297 55 322 73 342 c 1
 68 332 63 324 58 314 c 0
 30 257 5 200 -6 154 c 0
 -12 131 -15 111 -9 91 c 0
 -7 81 -1 71 9 64 c 0
 19 57 30 54 41 54 c 0
 56 54 67 59 80 66 c 0
 93 73 106 83 120 94 c 0
 134 105 150 118 165 132 c 1
 163 110 166 92 178 78 c 0
 197 56 225 52 249 53 c 0
 273 54 295 59 312 70 c 0
 370 107 417 167 451 233 c 1
 473 240 493 253 507 264 c 0
 515 270 521 275 526 279 c 0
 528 281 529 282 531 284 c 0
 532 285 533 286 533 286 c 0
 538 291 540 297 540 304 c 0
 540 308 540 312 538 315 c 0
 534 323 525 329 515 329 c 0
 511 329 507 328 504 326 c 0
 498 322 l 0
 498 321 l 0
 498 321 498 321 497 320 c 0
 496 319 494 318 492 316 c 0
 490 314 488 313 486 311 c 1
 489 320 493 329 496 338 c 0
 512 388 520 435 516 473 c 0
 514 492 509 511 498 525 c 0
 487 539 468 549 449 549 c 1
 402 549 369 515 354 479 c 0
 339 443 334 403 335 373 c 0
 337 315 346 277 368 253 c 0
 375 244 384 238 394 234 c 1
 364 183 327 138 286 112 c 0
 281 109 262 103 246 102 c 0
 230 101 219 107 216 110 c 0
 213 113 208 121 222 151 c 0
 236 181 266 224 324 286 c 0
 328 291 331 298 331 304 c 0
 331 307 331 310 330 313 c 0
 329 315 328 317 326 319 c 0
 325 320 325 321 324 322 c 0
 323 322 l 0
 321 323 321 323 319 324 c 0
 317 325 317 326 315 327 c 0
 314 327 315 327 314 327 c 0
 312 328 308 329 306 329 c 0
 299 329 292 326 288 321 c 2
 288 321 236 266 177 210 c 0
 147 182 116 154 90 134 c 0
 77 124 65 116 55 110 c 0
 45 104 39 103 41 103 c 1
 40 103 39 103 39 103 c 0
 39 103 39 104 39 105 c 0
 37 110 37 123 42 142 c 0
 51 180 75 236 102 291 c 0
 156 401 226 513 226 513 c 2
 228 517 230 521 230 526 c 0
 230 538 221 548 209 550 c 1
449 499 m 1
 455 499 455 498 458 494 c 0
 461 490 464 482 466 468 c 0
 468 441 463 400 449 354 c 0
 441 329 431 303 418 277 c 1
 414 278 410 280 406 285 c 0
 398 295 387 321 385 374 c 0
 384 399 388 434 399 460 c 0
 410 486 423 499 449 499 c 1
EndSplineSet
EndChar

StartChar: o
Encoding: 111 111 15
Width: 446
VWidth: 824
Flags: W
HStem: 52 50<81.5473 169.328>
LayerCount: 2
Fore
SplineSet
293 551 m 1
 288 551 284 551 279 550 c 0
 241 544 203 521 165 493 c 0
 89 437 14 357 -19 321 c 0
 -23 316 -25 310 -25 304 c 0
 -25 297 -22 291 -17 286 c 0
 -12 282 -6 279 -0 279 c 0
 7 279 13 282 18 287 c 0
 51 322 125 402 195 453 c 0
 230 479 264 496 287 500 c 0
 298 502 306 501 312 498 c 0
 318 495 323 490 328 478 c 0
 333 463 334 428 328 390 c 0
 324 367 317 342 308 317 c 1
 135 245 63 194 37 145 c 0
 23 119 28 90 44 74 c 0
 60 58 81 52 100 52 c 0
 101 52 101 53 102 53 c 0
 212 59 288 148 332 242 c 0
 338 255 343 268 348 281 c 1
 354 286 360 293 360 302 c 0
 360 304 360 308 359 310 c 0
 367 335 372 359 376 382 c 0
 383 426 386 464 376 494 c 0
 376 495 375 494 375 495 c 0
 367 516 354 532 336 542 c 0
 323 549 307 552 293 551 c 1
281 251 m 1
 241 172 180 107 100 102 c 0
 92 102 82 107 80 109 c 0
 78 111 75 110 81 122 c 0
 92 143 146 189 281 251 c 1
EndSplineSet
EndChar

StartChar: p
Encoding: 112 112 16
Width: 537
VWidth: 824
Flags: W
HStem: 277 42<257.197 279.3>
VStem: 481 49<424.849 495.404>
LayerCount: 2
Fore
SplineSet
277 550 m 1
 275 550 273 550 271 550 c 0
 263 549 256 545 249 543 c 0
 235 537 220 529 205 519 c 0
 174 498 139 470 106 440 c 0
 40 381 -18 319 -18 319 c 2
 -22 314 -25 308 -25 302 c 0
 -25 295 -22 289 -17 284 c 0
 -12 280 -6 277 0 277 c 0
 7 277 13 280 18 285 c 2
 18 285 76 345 140 403 c 0
 172 432 206 460 233 478 c 0
 247 488 258 495 267 498 c 0
 265 486 261 468 254 446 c 0
 240 406 217 353 191 302 c 1
 109 264 56 225 30 184 c 0
 16 163 9 142 11 120 c 0
 13 98 23 78 37 63 c 0
 45 54 60 52 70 54 c 0
 80 56 87 60 94 66 c 0
 108 77 123 92 137 112 c 0
 166 151 197 205 227 262 c 1
 245 268 263 272 280 278 c 1
 262 240 246 204 236 172 c 0
 228 148 222 127 220 109 c 0
 219 100 220 91 222 82 c 0
 224 73 230 62 242 56 c 0
 259 48 274 52 288 58 c 0
 302 64 318 73 333 83 c 0
 364 104 397 132 430 162 c 0
 496 221 555 283 555 283 c 2
 559 288 562 294 562 300 c 0
 562 307 559 313 554 318 c 0
 549 322 543 325 537 325 c 0
 530 325 524 323 519 318 c 2
 519 318 462 257 398 199 c 0
 366 170 332 142 305 124 c 0
 291 114 279 108 270 105 c 0
 272 116 276 135 283 157 c 0
 297 198 320 250 346 302 c 1
 434 337 484 373 510 410 c 0
 528 436 534 463 530 486 c 0
 526 509 513 527 500 539 c 0
 494 545 484 549 475 549 c 0
 472 549 468 549 466 548 c 0
 456 546 449 542 442 536 c 0
 428 525 414 510 400 490 c 0
 371 452 339 398 310 342 c 1
 293 336 276 329 257 323 c 1
 275 361 291 398 301 430 c 0
 309 454 315 475 317 493 c 0
 318 502 318 510 316 519 c 0
 314 528 307 540 295 546 c 0
 289 549 283 550 277 550 c 1
472 496 m 1
 476 490 479 485 481 478 c 0
 483 468 482 455 470 438 c 0
 458 420 432 399 386 375 c 1
 404 407 422 438 439 460 c 0
 452 478 465 490 472 496 c 1
148 222 m 1
 130 191 113 164 97 142 c 0
 85 125 73 113 66 107 c 1
 63 112 61 116 61 122 c 0
 60 131 62 143 72 157 c 0
 84 175 110 198 148 222 c 1
EndSplineSet
EndChar

StartChar: q
Encoding: 113 113 17
Width: 580
VWidth: 824
Flags: HW
LayerCount: 2
Fore
SplineSet
278 550 m 2
 276 550 275 550 273 550 c 1
 265 549 257 545 250 543 c 0
 236 537 221 529 206 519 c 0
 175 498 141 470 108 440 c 0
 42 381 -16 319 -16 319 c 2
 -20 314 -23 308 -23 302 c 0
 -23 295 -20 289 -15 284 c 0
 -10 280 -4 277 2 277 c 0
 9 277 15 280 20 285 c 2
 20 285 78 345 142 403 c 0
 174 432 207 460 234 478 c 0
 248 488 260 495 269 498 c 0
 269 498 l 1
 267 486 262 468 255 446 c 0
 242 409 222 361 199 315 c 1
 150 297 109 273 78 246 c 0
 47 219 24 188 15 156 c 0
 6 124 14 89 38 63 c 0
 46 54 61 52 71 54 c 0
 81 56 89 60 96 66 c 0
 110 77 124 92 138 112 c 0
 167 151 200 206 230 264 c 0
 232 267 232 271 234 274 c 0
 263 284 295 291 329 296 c 1
 306 250 286 204 274 166 c 0
 267 144 262 124 260 106 c 0
 259 97 260 90 262 81 c 0
 264 72 271 61 282 56 c 0
 299 48 316 52 330 58 c 0
 344 64 359 73 374 83 c 0
 405 104 439 132 472 162 c 0
 538 221 596 283 596 283 c 2
 600 288 603 294 603 300 c 0
 603 307 600 313 595 318 c 0
 590 322 584 325 578 325 c 0
 571 325 565 323 560 318 c 2
 560 318 502 257 438 199 c 0
 406 170 373 142 346 124 c 0
 332 114 320 108 311 105 c 0
 310 105 311 105 310 105 c 1
 311 115 315 131 321 150 c 0
 334 191 358 245 385 298 c 0
 412 351 443 403 471 441 c 0
 485 460 499 475 509 485 c 0
 519 495 528 497 524 497 c 1
 534 497 541 494 545 490 c 0
 549 486 553 478 550 452 c 0
 550 451 550 450 550 449 c 0
 550 436 560 426 572 424 c 0
 573 424 574 424 575 424 c 0
 588 424 597 434 599 446 c 0
 604 480 598 506 581 524 c 0
 564 542 542 546 524 546 c 0
 503 546 489 536 475 522 c 0
 461 508 446 491 431 470 c 0
 406 436 380 395 356 350 c 1
 323 347 292 341 263 334 c 1
 278 368 292 401 302 430 c 0
 310 454 316 475 318 493 c 0
 319 502 320 510 318 519 c 0
 316 528 309 540 297 546 c 0
 291 549 284 550 278 550 c 2
 278 550 l 2
161 242 m 1
 139 204 117 168 98 142 c 0
 85 125 74 112 67 106 c 1
 60 116 59 129 63 143 c 0
 68 161 84 186 110 208 c 0
 124 220 141 231 161 242 c 1
EndSplineSet
EndChar

StartChar: r
Encoding: 114 114 18
Width: 280
VWidth: 824
Flags: W
HStem: 55 50<-28.4322 73.3121> 751 50<246 275.903>
LayerCount: 2
Fore
SplineSet
246 801 m 0
 224 801 208 787 193 772 c 0
 178 757 164 737 149 713 c 0
 119 665 88 602 58 536 c 0
 0 405 -51 265 -65 226 c 0
 -83 176 -88 136 -74 104 c 0
 -60 72 -27 55 10 55 c 0
 73 55 132 100 182 149 c 0
 232 198 274 254 298 284 c 0
 301 288 303 293 303 299 c 0
 303 307 300 313 294 318 c 0
 290 321 285 324 279 324 c 0
 271 324 264 320 259 314 c 0
 235 283 193 231 147 185 c 0
 101 139 48 105 10 105 c 0
 -15 105 -22 110 -28 123 c 0
 -34 136 -33 166 -18 210 c 0
 -14 222 -1 256 10 286 c 0
 17 293 128 404 218 522 c 0
 264 583 306 643 322 694 c 0
 330 720 332 746 318 768 c 0
 304 790 278 801 246 801 c 0
246 751 m 1
 268 751 274 745 276 742 c 0
 278 739 280 728 274 709 c 0
 262 671 224 611 179 553 c 0
 140 502 97 452 59 410 c 1
 73 444 88 481 104 516 c 0
 133 580 163 641 191 686 c 0
 205 708 219 727 229 738 c 0
 239 749 248 751 246 751 c 1
EndSplineSet
EndChar

StartChar: s
Encoding: 115 115 19
Width: 471
VWidth: 824
Flags: W
HStem: 484 50<271.849 368.621>
LayerCount: 2
Fore
SplineSet
217 546 m 0
 211 545 206 542 202 538 c 1
 -16 322 l 2
 -21 317 -23 311 -23 304 c 0
 -23 297 -21 291 -16 286 c 0
 -11 281 -5 279 2 279 c 0
 9 279 14 281 19 286 c 1
 122 388 l 1
 -37 87 l 2
 -39 84 -40 80 -40 76 c 0
 -40 66 -34 58 -26 54 c 0
 -23 52 -19 51 -15 51 c 0
 -5 51 2 56 6 64 c 0
 164 363 l 2
 165 364 165 365 166 366 c 2
 166 366 189 394 221 424 c 0
 253 454 296 482 330 484 c 0
 348 485 361 483 369 477 c 0
 377 471 382 465 385 451 c 0
 391 425 383 375 354 314 c 0
 312 223 275 166 245 134 c 0
 215 102 196 96 183 97 c 0
 170 98 159 107 146 121 c 0
 133 135 123 153 113 167 c 0
 108 173 102 178 93 178 c 0
 87 178 82 176 78 174 c 0
 72 169 68 162 68 153 c 0
 68 147 70 143 72 139 c 0
 79 129 90 107 107 88 c 0
 124 69 148 49 180 47 c 0
 183 47 187 47 190 47 c 0
 195 47 204 47 214 49 c 0
 230 51 251 58 278 72 c 0
 332 101 405 162 490 290 c 0
 492 294 494 299 494 304 c 0
 494 313 489 319 483 324 c 0
 479 326 475 329 470 329 c 0
 468 329 467 328 465 328 c 0
 459 326 452 324 449 318 c 0
 409 257 371 213 339 181 c 1
 357 211 377 248 398 293 c 0
 429 359 443 416 433 462 c 0
 428 485 416 505 397 518 c 0
 378 531 353 536 327 534 c 0
 293 532 263 518 236 500 c 1
 241 509 l 2
 243 512 244 517 244 521 c 0
 244 535 233 546 219 546 c 0
 218 546 218 546 217 546 c 0
EndSplineSet
EndChar

StartChar: t
Encoding: 116 116 20
Width: 505
VWidth: 824
Flags: W
LayerCount: 2
Fore
SplineSet
418 549 m 0
 417 549 416 549 415 549 c 0
 413 549 413 548 411 548 c 0
 405 547 400 545 396 540 c 1
 97 192 l 1
 206 516 l 2
 207 518 208 522 208 524 c 0
 208 538 197 549 183 549 c 0
 175 549 169 545 164 539 c 0
 -18 318 l 2
 -21 314 -23 308 -23 302 c 0
 -23 294 -20 288 -14 283 c 0
 -10 280 -4 278 2 278 c 0
 10 278 16 280 21 286 c 0
 116 402 l 1
 9 87 l 2
 8 85 7 81 7 79 c 0
 7 65 18 54 32 54 c 0
 39 54 46 57 51 63 c 0
 320 375 l 1
 303 338 287 301 273 264 c 0
 254 215 240 171 235 134 c 0
 233 116 233 99 239 83 c 0
 245 67 266 54 284 54 c 0
 314 54 333 72 358 94 c 0
 383 116 410 143 434 170 c 0
 483 225 523 279 523 279 c 0
 526 283 528 288 528 294 c 0
 528 302 524 309 518 314 c 0
 514 317 509 319 503 319 c 0
 495 319 488 315 483 309 c 2
 483 309 443 255 396 202 c 0
 373 176 348 149 326 130 c 0
 305 112 285 105 285 104 c 1
 284 107 282 115 284 128 c 0
 287 156 301 199 319 246 c 0
 356 340 411 452 438 514 c 0
 440 517 440 521 440 524 c 0
 440 537 431 548 418 549 c 0
EndSplineSet
EndChar

StartChar: u
Encoding: 117 117 21
Width: 456
VWidth: 824
Flags: W
HStem: 52 50<70.645 179.705>
LayerCount: 2
Fore
SplineSet
296 551 m 1
 291 551 287 551 282 550 c 0
 244 544 206 521 168 493 c 0
 92 437 17 357 -16 321 c 0
 -20 316 -22 310 -22 304 c 0
 -22 297 -19 291 -14 286 c 0
 -9 282 -4 279 2 279 c 0
 9 279 16 282 21 287 c 0
 54 322 128 402 198 453 c 0
 233 479 267 496 290 500 c 0
 301 502 309 501 315 498 c 0
 321 495 326 490 331 478 c 0
 336 463 336 429 330 389 c 0
 324 349 310 301 290 258 c 0
 270 215 242 175 211 147 c 0
 180 119 145 102 103 102 c 0
 100 102 93 104 85 110 c 0
 77 116 69 125 66 130 c 0
 61 136 55 141 46 141 c 0
 40 141 36 138 32 136 c 0
 26 131 21 125 21 116 c 0
 21 110 24 106 26 102 c 0
 33 92 42 81 55 71 c 0
 68 61 83 52 103 52 c 0
 110 52 118 53 125 54 c 0
 130 53 138 53 148 54 c 0
 165 56 188 60 218 74 c 0
 278 100 366 160 477 286 c 0
 481 290 482 296 482 302 c 0
 482 309 479 315 474 320 c 0
 470 324 464 326 458 326 c 0
 457 326 457 326 456 326 c 0
 450 325 443 323 439 318 c 0
 390 263 348 220 310 190 c 1
 319 205 327 222 334 238 c 0
 356 286 372 335 379 380 c 0
 386 425 388 464 378 494 c 0
 378 495 378 494 378 495 c 0
 370 516 356 532 338 542 c 0
 325 549 310 552 296 551 c 1
EndSplineSet
EndChar

StartChar: v
Encoding: 118 118 22
Width: 323
VWidth: 824
Flags: W
HStem: -195 49<-33.3569 116.271> 499 50<150.868 254.679>
VStem: -26 48<281.191 294>
LayerCount: 2
Fore
SplineSet
207 549 m 1
 133 549 76 485 38 427 c 0
 0 369 -23 313 -23 313 c 2
 -24 310 -26 307 -26 304 c 0
 -26 294 -19 285 -10 281 c 0
 -7 280 -4 279 -1 279 c 0
 9 279 18 285 22 294 c 2
 22 294 44 347 79 400 c 0
 114 453 163 499 207 499 c 0
 228 499 241 494 250 488 c 0
 259 482 264 473 268 459 c 0
 276 432 274 388 262 339 c 0
 240 246 188 138 160 88 c 1
 95 58 -7 6 -96 -43 c 0
 -142 -69 -184 -93 -214 -112 c 0
 -229 -122 -240 -130 -250 -138 c 0
 -255 -142 -259 -145 -263 -150 c 0
 -265 -152 -267 -154 -269 -159 c 0
 -271 -164 -271 -172 -268 -180 c 0
 -264 -189 -256 -195 -246 -195 c 0
 -240 -195 -234 -193 -230 -190 c 0
 -180 -153 -149 -144 -126 -144 c 0
 -103 -144 -83 -155 -57 -169 c 0
 -31 -183 2 -197 44 -195 c 0
 86 -193 137 -176 203 -132 c 0
 209 -127 214 -120 214 -111 c 0
 214 -106 212 -101 210 -97 c 0
 205 -91 198 -86 189 -86 c 0
 184 -86 179 -88 175 -90 c 0
 114 -131 72 -145 42 -146 c 0
 12 -147 -9 -137 -34 -124 c 0
 -52 -115 -71 -105 -94 -99 c 1
 -87 -95 -80 -90 -72 -86 c 0
 18 -36 126 18 188 46 c 0
 190 47 191 48 193 49 c 0
 194 50 l 0
 196 52 197 55 199 57 c 0
 200 57 l 0
 229 108 284 221 310 327 c 0
 323 380 329 431 316 474 c 0
 310 496 297 514 278 528 c 0
 259 542 235 549 207 549 c 1
EndSplineSet
EndChar

StartChar: w
Encoding: 119 119 23
Width: 412
VWidth: 824
Flags: W
HStem: 499 51<176.186 235 242 274.742>
VStem: 290 50<320.791 486.186>
LayerCount: 2
Fore
SplineSet
235 550 m 2
 201 549 170 535 142 514 c 0
 108 488 77 452 52 411 c 0
 2 330 -28 232 -10 157 c 0
 4 97 50 56 104 53 c 0
 158 50 216 82 258 148 c 0
 284 190 308 240 322 290 c 1
 328 281 336 274 347 268 c 0
 369 257 399 263 425 285 c 0
 431 290 434 296 434 304 c 0
 434 310 432 315 429 319 c 0
 424 325 418 329 410 329 c 0
 404 329 398 326 394 323 c 0
 376 309 372 311 369 313 c 0
 366 315 358 324 352 338 c 0
 346 352 343 369 341 380 c 0
 340 384 340 387 340 389 c 0
 342 422 340 452 330 479 c 0
 319 510 295 537 261 547 c 0
 260 547 259 548 258 548 c 0
 253 549 247 550 242 550 c 0
 240 550 237 550 235 550 c 2
239 500 m 1
 242 500 245 499 248 499 c 0
 266 493 275 482 282 462 c 0
 288 445 291 424 290 398 c 0
 290 396 l 0
 289 394 290 394 290 393 c 0
 290 391 290 391 290 390 c 0
 290 389 290 389 290 388 c 0
 290 387 l 0
 290 385 289 381 289 379 c 0
 282 313 253 233 216 175 c 0
 180 119 139 100 107 102 c 0
 75 104 48 126 38 169 c 0
 26 220 49 313 94 386 c 0
 116 422 144 454 171 474 c 0
 192 489 212 497 231 499 c 0
 234 499 236 500 239 500 c 1
EndSplineSet
EndChar

StartChar: x
Encoding: 120 120 24
Width: 561
VWidth: 824
Flags: W
HStem: -199 49<165.336 218.449> 500 50<173.864 218.01>
VStem: 218 49<438.562 499.57> 449 49<363.925 501.859>
LayerCount: 2
Fore
SplineSet
418 555 m 0
 404 555 392 552 378 549 c 0
 359 544 344 533 328 518 c 0
 312 503 296 483 279 461 c 0
 273 454 268 446 262 438 c 1
 264 450 266 462 267 472 c 0
 268 490 267 508 257 524 c 0
 247 540 227 550 208 550 c 0
 178 550 157 530 133 508 c 0
 109 486 84 458 62 430 c 0
 17 374 -20 318 -20 318 c 2
 -22 314 -24 309 -24 304 c 0
 -24 295 -19 288 -13 283 c 0
 -9 281 -4 279 1 279 c 0
 10 279 17 284 22 290 c 2
 22 290 58 344 101 398 c 0
 123 425 145 453 166 472 c 0
 187 491 207 500 208 500 c 0
 214 500 212 500 214 498 c 0
 216 496 219 487 218 474 c 0
 217 448 205 404 187 358 c 0
 167 305 139 247 113 194 c 0
 79 133 56 88 56 88 c 2
 56 87 55 87 55 86 c 0
 54 84 54 80 54 77 c 0
 54 76 54 75 54 74 c 0
 55 71 54 68 56 66 c 0
 56 65 57 63 58 62 c 0
 60 59 63 57 66 55 c 0
 66 54 l 0
 67 54 67 54 68 54 c 0
 71 53 75 52 78 52 c 0
 79 52 80 53 81 53 c 0
 84 53 88 53 90 55 c 0
 91 55 91 56 92 57 c 0
 95 59 97 61 99 64 c 0
 116 93 137 131 158 173 c 0
 176 206 196 242 219 280 c 0
 252 334 286 388 318 430 c 0
 334 451 349 470 362 482 c 0
 375 494 387 500 390 501 c 0
 413 507 430 505 437 502 c 0
 444 499 448 496 449 473 c 0
 451 427 422 320 338 134 c 1
 315 112 290 88 268 66 c 0
 210 8 160 -47 134 -93 c 0
 120 -116 111 -137 117 -162 c 0
 120 -174 130 -185 141 -191 c 0
 152 -197 165 -199 179 -199 c 0
 209 -199 235 -184 254 -162 c 0
 273 -140 289 -113 303 -83 c 0
 331 -24 353 47 379 105 c 1
 413 136 444 165 474 191 c 0
 526 237 565 270 578 282 c 0
 583 287 586 294 586 301 c 0
 586 307 583 313 579 318 c 0
 574 323 569 326 562 326 c 0
 556 326 549 322 544 318 c 0
 536 311 495 275 442 229 c 0
 437 225 432 219 427 215 c 1
 479 341 500 421 498 475 c 0
 496 509 482 537 457 548 c 0
 444 554 432 555 418 555 c 0
292 19 m 1
 281 -10 269 -37 258 -62 c 0
 245 -90 232 -114 218 -129 c 0
 204 -144 192 -150 179 -150 c 0
 171 -150 167 -148 165 -147 c 0
 165 -145 166 -135 176 -118 c 0
 196 -84 241 -33 292 19 c 1
EndSplineSet
EndChar

StartChar: y
Encoding: 121 121 25
Width: 547
VWidth: 824
Flags: HW
LayerCount: 2
Fore
SplineSet
471 552 m 2
 470 552 l 0
 467 552 464 551 462 550 c 0
 456 548 450 543 448 537 c 0
 425 487 392 419 359 350 c 1
 325 348 295 341 265 334 c 1
 280 368 294 401 304 430 c 0
 312 454 318 475 320 493 c 0
 321 502 321 510 319 519 c 0
 317 528 310 540 298 546 c 0
 289 550 282 551 274 550 c 1
 266 549 259 545 252 543 c 0
 238 537 223 529 208 519 c 0
 177 498 143 470 110 440 c 0
 44 381 -14 319 -14 319 c 2
 -18 314 -22 308 -22 302 c 0
 -22 295 -19 289 -14 284 c 0
 -9 280 -3 277 3 277 c 0
 10 277 17 280 22 285 c 2
 22 285 79 345 143 403 c 0
 175 432 209 460 236 478 c 0
 250 488 261 495 270 498 c 0
 270 498 l 1
 268 486 264 468 257 446 c 0
 244 409 224 361 201 315 c 1
 152 297 110 273 79 246 c 0
 48 219 26 188 17 156 c 0
 8 124 15 89 39 63 c 0
 47 54 63 52 73 54 c 0
 83 56 91 60 98 66 c 0
 112 77 126 92 140 112 c 0
 169 151 201 206 231 264 c 0
 233 267 234 271 236 274 c 0
 266 284 299 292 335 297 c 1
 333 292 330 287 328 282 c 0
 308 238 289 197 276 164 c 0
 270 147 265 133 261 121 c 0
 257 109 253 100 255 86 c 0
 257 75 265 62 277 56 c 0
 289 50 300 52 310 54 c 0
 331 59 352 70 378 88 c 0
 430 124 495 188 565 279 c 0
 568 283 570 288 570 294 c 0
 570 302 566 309 560 314 c 0
 556 317 551 318 545 318 c 0
 537 318 531 315 526 309 c 0
 459 221 395 161 349 129 c 0
 331 117 318 110 308 106 c 1
 308 106 l 0
 311 116 316 130 322 146 c 0
 335 177 353 218 373 262 c 0
 413 350 462 450 493 517 c 0
 495 520 495 522 495 526 c 0
 495 536 490 546 481 550 c 0
 478 552 474 552 471 552 c 1
 471 552 l 2
162 242 m 1
 140 204 119 168 100 142 c 0
 87 125 76 112 69 106 c 1
 62 116 61 129 65 143 c 0
 70 161 85 186 111 208 c 0
 125 220 142 231 162 242 c 1
EndSplineSet
EndChar

StartChar: z
Encoding: 122 122 26
Width: 505
VWidth: 824
Flags: HW
LayerCount: 2
Fore
SplineSet
417 549 m 2
 416 549 415 549 414 549 c 0
 412 549 412 548 410 548 c 0
 404 547 399 544 395 540 c 1
 96 192 l 1
 206 516 l 2
 207 518 207 522 207 524 c 0
 207 538 196 549 182 549 c 0
 174 549 168 545 163 539 c 0
 -18 318 l 2
 -21 314 -24 308 -24 302 c 0
 -24 294 -21 288 -15 283 c 0
 -11 280 -5 278 1 278 c 0
 9 278 15 280 20 286 c 0
 115 402 l 1
 8 87 l 2
 7 85 6 81 6 79 c 0
 6 65 17 54 31 54 c 0
 38 54 45 57 50 63 c 0
 319 375 l 1
 302 338 286 301 272 264 c 0
 253 215 239 171 234 134 c 0
 232 116 232 99 238 83 c 0
 244 67 265 54 283 54 c 0
 313 54 333 72 358 94 c 0
 383 116 409 143 433 170 c 0
 482 225 522 279 522 279 c 2
 525 283 527 288 527 294 c 0
 527 302 523 309 517 314 c 0
 513 317 508 319 502 319 c 0
 494 319 487 315 482 309 c 2
 482 309 442 255 395 202 c 0
 372 176 348 149 326 130 c 0
 305 112 284 105 284 104 c 1
 283 107 281 115 283 128 c 0
 286 156 300 199 318 246 c 0
 355 340 410 452 437 514 c 0
 439 517 439 521 439 524 c 0
 439 537 430 548 417 549 c 1
 417 549 l 2
247 -24 m 0
 246 -24 247 -23 246 -23 c 0
 242 -23 237 -24 234 -26 c 2
 234 -26 210 -39 179 -51 c 0
 148 -63 110 -75 92 -74 c 0
 51 -73 29 -45 29 -45 c 2
 24 -39 17 -34 9 -34 c 0
 3 -34 -2 -37 -6 -40 c 0
 -12 -45 -16 -51 -16 -59 c 0
 -16 -65 -13 -70 -10 -74 c 2
 -10 -74 25 -122 90 -124 c 0
 125 -125 165 -112 198 -98 c 0
 231 -84 257 -70 257 -70 c 2
 265 -66 270 -58 270 -48 c 0
 270 -44 270 -40 268 -37 c 0
 265 -31 260 -27 254 -25 c 0
 252 -24 249 -24 247 -24 c 0
EndSplineSet
EndChar

StartChar: V
Encoding: 86 86 27
Width: 323
VWidth: 824
Flags: HW
LayerCount: 2
Fore
SplineSet
563 753 m 0
 562 753 563 753 562 753 c 0
 558 753 553 752 550 750 c 1
 327 642 l 2
 319 638 314 629 314 619 c 0
 314 615 314 611 316 608 c 0
 320 600 328 594 338 594 c 0
 342 594 347 595 350 597 c 1
 573 706 l 2
 581 710 586 718 586 728 c 0
 586 732 586 736 584 739 c 0
 581 745 576 750 570 752 c 0
 568 753 565 753 563 753 c 0
510 553 m 1
 508 553 505 553 503 553 c 0
 496 552 489 551 482 549 c 0
 464 544 450 532 436 517 c 0
 422 502 407 482 392 460 c 0
 390 456 386 452 384 448 c 1
 386 456 386 464 386 472 c 0
 387 490 387 507 378 522 c 0
 369 537 349 550 331 550 c 0
 316 550 305 543 294 536 c 0
 283 529 271 518 261 507 c 0
 239 485 218 457 198 429 c 0
 157 373 123 317 123 317 c 2
 121 313 120 309 120 304 c 0
 120 295 125 286 132 282 c 0
 136 280 140 279 145 279 c 0
 154 279 162 284 166 291 c 2
 166 291 199 346 238 400 c 0
 257 427 279 454 297 473 c 0
 307 483 316 489 322 494 c 0
 328 499 333 500 331 500 c 1
 336 500 332 501 334 499 c 0
 336 497 338 488 337 474 c 0
 335 447 325 405 309 358 c 0
 291 305 266 247 242 194 c 0
 242 194 l 0
 212 133 190 87 190 87 c 2
 190 86 189 87 189 86 c 0
 188 84 187 80 187 77 c 0
 187 76 l 0
 187 74 188 74 188 73 c 0
 189 70 189 67 191 65 c 0
 192 64 191 63 192 62 c 0
 194 59 197 56 200 54 c 0
 201 54 l 0
 202 54 l 0
 203 54 202 54 203 54 c 0
 205 53 209 52 212 52 c 0
 212 52 l 0
 214 52 215 53 216 53 c 0
 219 54 222 54 224 56 c 0
 225 57 225 56 226 57 c 0
 229 59 232 62 234 65 c 0
 249 94 268 132 287 174 c 0
 304 207 321 243 342 281 c 0
 372 335 404 390 433 432 c 0
 447 453 461 470 472 482 c 0
 483 494 494 501 495 501 c 0
 513 506 521 504 526 499 c 0
 531 494 538 481 537 450 c 0
 535 388 504 269 429 86 c 1
 364 56 262 6 174 -43 c 0
 128 -69 86 -93 56 -112 c 0
 41 -122 30 -130 20 -138 c 0
 15 -142 11 -145 7 -150 c 0
 5 -152 4 -154 2 -159 c 0
 0 -164 -1 -172 2 -180 c 0
 6 -189 15 -195 25 -195 c 0
 31 -195 36 -193 40 -190 c 0
 90 -153 121 -144 144 -144 c 0
 167 -144 188 -155 214 -169 c 0
 240 -183 272 -197 314 -195 c 0
 356 -193 408 -176 474 -132 c 0
 480 -127 484 -120 484 -111 c 0
 484 -106 482 -101 480 -97 c 0
 475 -91 468 -86 459 -86 c 0
 454 -86 450 -88 446 -90 c 0
 385 -131 343 -145 313 -146 c 0
 283 -147 261 -137 236 -124 c 0
 218 -115 199 -105 176 -99 c 1
 183 -95 190 -90 198 -86 c 0
 288 -36 396 18 458 46 c 0
 464 48 469 53 471 59 c 0
 549 250 584 371 586 448 c 0
 587 486 581 516 560 535 c 0
 546 548 528 553 510 553 c 1
 510 553 l 1
EndSplineSet
EndChar

StartChar: X
Encoding: 88 88 28
Width: 561
VWidth: 824
Flags: HW
LayerCount: 2
Fore
SplineSet
541 753 m 0
 540 753 540 753 539 753 c 0
 535 753 531 752 528 750 c 1
 305 642 l 2
 297 638 291 629 291 619 c 0
 291 615 292 611 294 608 c 0
 298 600 306 594 316 594 c 0
 320 594 323 595 326 597 c 1
 550 706 l 2
 558 710 564 718 564 728 c 0
 564 732 564 736 562 739 c 0
 559 745 553 750 547 752 c 0
 545 753 543 753 541 753 c 0
442 555 m 2
 428 555 416 552 402 549 c 0
 383 544 368 533 352 518 c 0
 336 503 320 483 303 461 c 0
 297 454 292 446 286 438 c 1
 288 450 290 462 291 472 c 0
 292 490 291 508 281 524 c 0
 271 540 251 550 232 550 c 0
 202 550 181 530 157 508 c 0
 133 486 108 458 86 430 c 0
 41 374 4 318 4 318 c 2
 2 314 0 309 0 304 c 0
 0 295 5 288 11 283 c 0
 15 281 20 279 25 279 c 0
 34 279 41 284 46 290 c 2
 46 290 82 344 125 398 c 0
 147 425 169 453 190 472 c 0
 211 491 231 500 232 500 c 0
 238 500 236 500 238 498 c 0
 240 496 243 487 242 474 c 0
 241 448 229 404 211 358 c 0
 191 305 163 247 137 194 c 0
 103 133 80 88 80 88 c 2
 80 87 79 87 79 86 c 0
 78 83 78 80 78 77 c 0
 78 77 l 0
 78 76 78 75 78 74 c 0
 78 71 78 67 80 65 c 0
 80 64 81 63 82 62 c 0
 84 59 87 57 90 55 c 0
 90 55 l 0
 90 54 l 0
 91 54 91 54 92 54 c 0
 95 53 99 52 102 52 c 0
 102 52 l 0
 103 52 104 53 105 53 c 0
 108 54 112 53 114 55 c 0
 115 55 115 56 116 57 c 0
 119 59 121 61 123 64 c 0
 140 93 161 131 182 173 c 0
 200 206 220 242 243 280 c 0
 276 334 310 388 342 430 c 0
 358 451 373 470 386 482 c 0
 399 494 411 500 414 501 c 0
 437 507 454 505 461 502 c 0
 468 499 472 496 473 473 c 0
 475 427 446 320 362 134 c 1
 339 112 314 88 292 66 c 0
 234 8 184 -47 158 -93 c 0
 144 -116 135 -137 141 -162 c 0
 144 -174 154 -185 165 -191 c 0
 176 -197 189 -199 203 -199 c 0
 233 -199 259 -184 278 -162 c 0
 297 -140 313 -113 327 -83 c 0
 355 -24 377 47 403 105 c 1
 437 136 468 165 498 191 c 0
 550 237 589 270 602 282 c 0
 607 287 610 294 610 301 c 0
 610 307 607 313 603 318 c 0
 598 323 593 326 586 326 c 0
 580 326 573 322 568 318 c 0
 560 311 519 275 466 229 c 0
 461 225 456 219 451 215 c 1
 503 341 524 421 522 475 c 0
 520 509 506 537 481 548 c 0
 468 554 456 555 442 555 c 2
 442 555 l 2
316 19 m 1
 305 -10 293 -37 282 -62 c 0
 269 -90 256 -114 242 -129 c 0
 228 -144 216 -150 203 -150 c 0
 195 -150 191 -148 189 -147 c 0
 189 -145 190 -135 200 -118 c 0
 220 -84 265 -33 316 19 c 1
EndSplineSet
EndChar

StartChar: F
Encoding: 70 70 29
Width: 443
VWidth: 824
Flags: HW
LayerCount: 2
Fore
SplineSet
629 753 m 0
 628 753 628 753 627 753 c 0
 623 753 619 752 616 750 c 1
 394 642 l 2
 386 638 379 629 379 619 c 0
 379 615 380 611 382 608 c 0
 386 600 394 594 404 594 c 0
 408 594 412 595 415 597 c 1
 638 706 l 2
 646 710 652 718 652 728 c 0
 652 732 652 736 650 739 c 0
 647 745 641 750 635 752 c 0
 633 753 631 753 629 753 c 0
478 549 m 1
 404 549 347 485 309 427 c 0
 271 369 247 313 247 313 c 2
 246 310 245 307 245 304 c 0
 245 294 252 285 261 281 c 0
 264 280 267 279 270 279 c 0
 280 279 289 285 293 294 c 2
 293 294 315 347 350 400 c 0
 385 453 434 499 478 499 c 0
 499 499 511 494 520 488 c 0
 529 482 534 473 538 459 c 0
 546 432 544 388 532 339 c 0
 510 246 458 138 430 88 c 1
 365 58 263 6 174 -43 c 0
 128 -69 86 -93 56 -112 c 0
 41 -122 30 -130 20 -138 c 0
 15 -142 11 -145 7 -150 c 0
 5 -152 4 -154 2 -159 c 0
 0 -164 -1 -172 2 -180 c 0
 6 -189 15 -195 25 -195 c 0
 31 -195 36 -193 40 -190 c 0
 90 -153 121 -144 144 -144 c 0
 167 -144 188 -155 214 -169 c 0
 240 -183 272 -197 314 -195 c 0
 356 -193 408 -176 474 -132 c 0
 480 -127 484 -120 484 -111 c 0
 484 -106 482 -101 480 -97 c 0
 475 -91 468 -86 459 -86 c 0
 454 -86 450 -88 446 -90 c 0
 385 -131 343 -145 313 -146 c 0
 283 -147 261 -137 236 -124 c 0
 218 -115 199 -105 176 -99 c 1
 183 -95 190 -90 198 -86 c 0
 288 -36 396 18 458 46 c 0
 460 47 461 48 463 49 c 0
 464 50 l 0
 466 52 468 55 470 57 c 0
 470 57 l 0
 470 57 l 0
 470 57 l 0
 470 57 l 0
 470 57 l 0
 470 57 l 0
 499 108 555 221 581 327 c 0
 594 380 599 431 586 474 c 0
 580 496 568 514 549 528 c 0
 530 542 506 549 478 549 c 1
 478 549 l 1
EndSplineSet
EndChar

StartChar: R
Encoding: 82 82 30
Width: 280
VWidth: 824
Flags: HW
LayerCount: 2
Fore
SplineSet
327 801 m 0
 305 801 289 787 274 772 c 0
 259 757 245 737 230 713 c 0
 200 665 170 602 140 536 c 0
 130 515 122 494 113 473 c 1
 107 489 102 506 99 522 c 0
 84 598 93 663 93 663 c 2
 93 664 93 665 93 666 c 0
 93 679 83 689 71 691 c 0
 70 691 69 691 68 691 c 0
 55 691 45 682 43 670 c 2
 43 670 33 596 51 511 c 0
 57 478 68 444 86 410 c 1
 52 326 27 252 17 226 c 0
 -1 176 -6 136 8 104 c 0
 22 72 55 55 92 55 c 0
 155 55 213 100 263 149 c 0
 313 198 356 254 380 284 c 0
 383 288 385 293 385 299 c 0
 385 307 382 313 376 318 c 0
 372 321 367 324 361 324 c 0
 353 324 346 320 341 314 c 0
 317 283 275 231 229 185 c 0
 183 139 130 105 92 105 c 0
 67 105 60 110 54 123 c 0
 48 136 48 166 63 210 c 0
 67 222 81 256 92 286 c 0
 94 288 114 308 141 337 c 1
 164 315 192 295 227 281 c 0
 230 280 234 279 237 279 c 0
 247 279 256 285 260 294 c 0
 261 297 262 301 262 304 c 0
 262 314 255 322 246 326 c 0
 217 338 193 355 174 373 c 1
 212 415 258 468 300 522 c 0
 346 583 387 643 403 694 c 0
 411 720 414 746 400 768 c 0
 386 790 359 801 327 801 c 0
327 751 m 1
 349 751 356 745 358 742 c 0
 360 739 362 728 356 709 c 0
 344 671 306 611 261 553 c 0
 223 503 180 454 142 412 c 1
 142 413 l 0
 156 447 171 482 186 516 c 0
 215 580 245 641 273 686 c 0
 287 708 300 727 310 738 c 0
 320 749 329 751 327 751 c 1
EndSplineSet
EndChar

StartChar: quotesingle
Encoding: 39 39 31
Width: 280
VWidth: 824
Flags: HW
LayerCount: 2
Fore
SplineSet
402 801 m 0
 380 801 363 787 348 772 c 0
 333 757 319 737 304 713 c 0
 274 665 244 602 214 536 c 0
 196 498 180 459 165 421 c 1
 123 423 80 437 40 468 c 0
 36 471 31 474 25 474 c 0
 17 474 11 470 6 464 c 0
 3 460 0 455 0 449 c 0
 0 441 4 435 10 430 c 0
 54 396 100 380 146 374 c 1
 119 306 98 248 90 226 c 0
 72 176 68 136 82 104 c 0
 96 72 129 55 166 55 c 0
 229 55 288 100 338 149 c 0
 388 198 430 254 454 284 c 0
 457 288 459 293 459 299 c 0
 459 307 456 313 450 318 c 0
 446 321 440 324 434 324 c 0
 426 324 419 320 414 314 c 0
 390 283 348 231 302 185 c 0
 256 139 204 105 166 105 c 0
 141 105 133 110 127 123 c 0
 121 136 122 166 137 210 c 0
 141 222 155 256 166 286 c 0
 170 290 207 328 254 380 c 1
 269 383 284 387 298 392 c 0
 380 419 438 464 438 464 c 2
 444 469 448 476 448 484 c 0
 448 490 446 495 443 499 c 0
 439 504 432 508 426 509 c 0
 425 509 424 509 423 509 c 0
 417 509 412 507 408 504 c 2
 408 504 372 475 318 452 c 1
 337 474 356 498 374 522 c 0
 420 583 461 643 477 694 c 0
 485 720 488 746 474 768 c 0
 460 790 434 801 402 801 c 0
402 751 m 1
 424 751 429 745 431 742 c 0
 433 739 436 728 430 709 c 0
 418 671 379 611 334 553 c 0
 299 507 261 463 227 425 c 0
 225 424 222 424 220 424 c 1
 233 454 245 486 259 516 c 0
 288 580 318 641 346 686 c 0
 360 708 374 727 384 738 c 0
 394 749 404 751 402 751 c 1
EndSplineSet
EndChar

StartChar: asciicircum
Encoding: 94 94 32
Width: 0
VWidth: 824
Flags: W
HStem: 594 159
LayerCount: 2
Fore
SplineSet
-201 753 m 4
 -203 753 -204 753 -206 752 c 4
 -207 752 -207 751 -208 751 c 4
 -210 750 -210 751 -212 750 c 4
 -213 750 l 5
 -388 640 l 6
 -395 636 -400 628 -400 619 c 4
 -400 614 -398 610 -396 606 c 4
 -392 599 -384 594 -375 594 c 4
 -370 594 -366 596 -362 598 c 5
 -206 694 l 5
 -142 605 l 6
 -137 599 -130 594 -122 594 c 4
 -116 594 -112 596 -108 599 c 4
 -102 604 -98 611 -98 619 c 4
 -98 625 -99 630 -102 634 c 5
 -179 742 l 6
 -180 744 -180 745 -182 746 c 4
 -183 746 l 4
 -185 748 -185 749 -187 750 c 4
 -188 750 -188 750 -189 750 c 4
 -191 751 -191 752 -193 752 c 4
 -194 752 l 4
 -195 753 l 4
 -197 753 -198 753 -200 753 c 4
 -201 753 l 4
EndSplineSet
EndChar

StartChar: comma
Encoding: 44 44 34
Width: 200
Flags: HW
LayerCount: 2
Fore
SplineSet
131 92 m 4
 121 90.6669921875 114 86.6669921875 110 80 c 6
 42 -41 l 6
 39.3330078125 -43.6669921875 38.6669921875 -47 40 -51 c 4
 40 -65 46 -74 58 -78 c 4
 63.3330078125 -80.6669921875 69.1669921875 -80.6669921875 75.5 -78 c 4
 81.8330078125 -75.3330078125 86.6669921875 -72 90 -68 c 6
 158 53 l 6
 160.666992188 55.6669921875 161.666992188 59.1669921875 161 63.5 c 4
 160.333007812 67.8330078125 159 72.3330078125 157 77 c 4
 155 81.6669921875 151.5 85.3330078125 146.5 88 c 4
 141.5 90.6669921875 136.333007812 92 131 92 c 4
EndSplineSet
EndChar

StartChar: period
Encoding: 46 46 35
Width: 200
Flags: HW
HStem: 150 81<67.3147 137.113>
LayerCount: 2
Fore
SplineSet
96 101 m 6
 83.3330078125 99.6669921875 73.6669921875 95 67 87 c 4
 63 80.3330078125 60.5 73 59.5 65 c 4
 58.5 57 59.3330078125 49.6669921875 62 43 c 4
 64.6669921875 38.3330078125 67.6669921875 34.6669921875 71 32 c 4
 79 24 88.6669921875 20 100 20 c 4
 111.333007812 20 121 24 129 32 c 4
 132.333007812 34.6669921875 135.333007812 38.3330078125 138 43 c 4
 142 53 142.166992188 63.8330078125 138.5 75.5 c 4
 134.833007812 87.1669921875 127 95 115 99 c 4
 111 100.333007812 106.666992188 101 102 101 c 6
 96 101 l 6
EndSplineSet
EndChar
